<?xml version="1.0" encoding="utf-8"?>
<!-- Generator: Adobe Illustrator 24.1.0, SVG Export Plug-In . SVG Version: 6.00 Build 0)  -->
<svg version="1.1" id="Layer_1" xmlns="http://www.w3.org/2000/svg" xmlns:xlink="http://www.w3.org/1999/xlink" x="0px" y="0px"
	 viewBox="0 0 526 416" style="enable-background:new 0 0 526 416;" xml:space="preserve">
<style type="text/css">
	@keyframes show1{
      24%{ fill: none;}
      25%{ fill: #FFFFFF;}
      100%{ fill: #FFFFFF;}
    }
    @keyframes show2{
      49%{ fill: none;}
      50%{ fill: #FFFFFF;}
      100%{ fill: #FFFFFF;}
    }
    @keyframes show3{
      74%{ fill: none;}
      75%{ fill: #FFFFFF;}
      100%{ fill: #FFFFFF;}
    }
	#path1{
      animation: show1 3s infinite;
    }
    #path2{
      animation: show2 3s infinite;
    }
    #path3{
      animation: show3 3s infinite;
    }

	@keyframes phone-icon {
		0% {
			-webkit-transform: translate3d(0em, 0, 0);
					transform: translate3d(0em, 0, 0);
		}
		2% {
			-webkit-transform: translate3d(0.1em, 0, 0);
					transform: translate3d(0.1em, 0, 0);
		}
		4% {
			-webkit-transform: translate3d(-0.1em, 0, 0);
					transform: translate3d(-0.1em, 0, 0);
		}
		6% {
			-webkit-transform: translate3d(0.1em, 0, 0);
					transform: translate3d(0.1em, 0, 0);
		}
		8% {
			-webkit-transform: translate3d(-0.1em, 0, 0);
					transform: translate3d(-0.1em, 0, 0);
		}
		10% {
			-webkit-transform: translate3d(0.1em, 0, 0);
					transform: translate3d(0.1em, 0, 0);
		}
		12% {
			-webkit-transform: translate3d(-0.1em, 0, 0);
					transform: translate3d(-0.1em, 0, 0);
		}
		14% {
			-webkit-transform: translate3d(0.1em, 0, 0);
					transform: translate3d(0.1em, 0, 0);
		}
		16% {
			-webkit-transform: translate3d(-0.1em, 0, 0);
					transform: translate3d(-0.1em, 0, 0);
		}
		18% {
			-webkit-transform: translate3d(0.1em, 0, 0);
					transform: translate3d(0.1em, 0, 0);
		}
		20% {
			-webkit-transform: translate3d(-0.1em, 0, 0);
					transform: translate3d(-0.1em, 0, 0);
		}
		22% {
			-webkit-transform: translate3d(0.1em, 0, 0);
					transform: translate3d(0.1em, 0, 0);
		}
		24% {
			-webkit-transform: translate3d(-0.1em, 0, 0);
					transform: translate3d(-0.1em, 0, 0);
		}
		26% {
			-webkit-transform: translate3d(0.1em, 0, 0);
					transform: translate3d(0.1em, 0, 0);
		}
		28% {
			-webkit-transform: translate3d(-0.1em, 0, 0);
					transform: translate3d(-0.1em, 0, 0);
		}
		30% {
			-webkit-transform: translate3d(0.1em, 0, 0);
					transform: translate3d(0.1em, 0, 0);
		}
		32% {
			-webkit-transform: translate3d(-0.1em, 0, 0);
					transform: translate3d(-0.1em, 0, 0);
		}
		34% {
			-webkit-transform: translate3d(0.1em, 0, 0);
					transform: translate3d(0.1em, 0, 0);
		}
		36% {
			-webkit-transform: translate3d(-0.1em, 0, 0);
					transform: translate3d(-0.1em, 0, 0);
		}
		38% {
			-webkit-transform: translate3d(0.01em, 0, 0);
					transform: translate3d(0.01em, 0, 0);
		}
		40% {
			-webkit-transform: translate3d(-0.1em, 0, 0);
					transform: translate3d(-0.1em, 0, 0);
		}
		42% {
			-webkit-transform: translate3d(0.1em, 0, 0);
					transform: translate3d(0.1em, 0, 0);
		}
		44% {
			-webkit-transform: translate3d(-0.1em, 0, 0);
					transform: translate3d(-0.1em, 0, 0);
		}
		46% {
			-webkit-transform: translate3d(0em, 0, 0);
					transform: translate3d(0em, 0, 0);
		}
	}
	#phone{
		-webkit-animation: phone-icon 3s infinite;
          animation: phone-icon 3s infinite;
	}

	@keyframes pulse1{
		0%{
			stroke-width: 0;
			stroke-opacity: 1;
		}
		33.3333%{
			stroke-width: 20;
			stroke-opacity: 1;
		}
		66.6666%{
			stroke-width: 0;
			stroke-opacity: 0;
		}
		100%{
			stroke-width: 0;
			stroke-opacity: 0;
		}
	}
	#phone-inner{
		stroke: #ffffff36;
		animation: pulse1 3s infinite ease-in-out;
	}

	@keyframes pulse2{
		0%{
			stroke-width: 0;
			stroke-opacity: 1;
		}
		33.3333%{
			stroke-width: 0;
			stroke-opacity: 1;
		}
		66.6666%{
			stroke-width: 8;
			stroke-opacity: 1;
		}
		100%{
			stroke-width: 8;
			stroke-opacity: 0;
		}
	}
	#phone-outer{
		stroke: #ffffff36;
		animation: pulse2 3s infinite ease-in-out;
	}

	.st0{fill-rule:evenodd;clip-rule:evenodd;fill:#24B8EB;}
	.st1{fill:#D3F1FB;}
	.st2{fill:#24B8EB;}
	.st3{fill:#FEE8A2;}
	.st4{fill:#FFFFFF;}
	.st5{fill:#66CDF1;}
	.st6{fill:#0E3359;}
	.st7{fill:#FDCEAE;}
	.st8{fill:#393D5D;}
	.st9{fill:#FAC80D;}
	.st10{fill:#19465B;}
	.st11{fill:#194757;}
	.st12{fill:#5DC581;}
	.st13{fill:#316891;}
	.st14{fill:#255B7C;}
	.st15{fill:#FFFDF4;}
	.st16{fill:#6BC687;}
	.st17{fill:#FCC516;}
	.st18{fill:#F67476;}
	.st19{fill:none;stroke:#FFFFFF;stroke-miterlimit:10;stroke-dasharray:3.522;}
	.st20{fill:#17AC4B;}
</style>
<g transform="translate(-1122.482 -150.124)">
	<g transform="translate(1122.482 294.24)">
		<path class="st0" d="M13.4,2.1c-0.4-0.5-0.8-0.8-0.7-1c0.1-0.3,0.5-0.5,0.7-0.8C13.6,0.6,14,0.8,14,1.1S13.7,1.6,13.4,2.1z"/>
		<path class="st0" d="M28.4,2.1c-0.4-0.5-0.8-0.8-0.7-1c0.1-0.3,0.5-0.5,0.7-0.8C28.6,0.6,29,0.8,29,1.1
			C29.1,1.3,28.7,1.6,28.4,2.1z"/>
		<path class="st0" d="M43.4,2.1c-0.4-0.5-0.8-0.8-0.7-1c0.1-0.3,0.5-0.5,0.7-0.8C43.6,0.6,44,0.8,44,1.1S43.7,1.6,43.4,2.1z"/>
		<path class="st0" d="M58.4,2.1c-0.4-0.5-0.8-0.8-0.7-1c0.1-0.3,0.5-0.5,0.7-0.8C58.6,0.6,59,0.8,59,1.1S58.7,1.6,58.4,2.1z"/>
		<path class="st0" d="M73.4,2.1c-0.4-0.5-0.8-0.8-0.7-1c0.1-0.3,0.5-0.5,0.7-0.8C73.6,0.6,74,0.8,74,1.1
			C74.1,1.3,73.7,1.6,73.4,2.1z"/>
		<path class="st0" d="M88.4,0c0.3,0.5,0.7,0.8,0.7,1c0,0.3-0.4,0.5-0.6,0.8c-0.3-0.3-0.7-0.5-0.8-0.8C87.6,0.8,88,0.5,88.4,0z"/>
		<path class="st0" d="M104.4,1.1c-0.5,0.3-0.8,0.7-1,0.6c-0.3,0-0.5-0.4-0.8-0.6c0.3-0.3,0.5-0.6,0.8-0.7
			C103.6,0.3,103.9,0.7,104.4,1.1z"/>
		<path class="st0" d="M6.9,8.5c-0.4,0.3-0.7,0.7-1,0.7c-0.3,0-0.5-0.4-0.8-0.6C5.4,8.4,5.6,8,5.9,7.9C6.1,7.8,6.4,8.2,6.9,8.5z"/>
		<path class="st0" d="M20.9,7.5c0.3,0.5,0.7,0.8,0.7,1c0,0.3-0.4,0.5-0.6,0.8c-0.3-0.3-0.7-0.5-0.8-0.8C20.1,8.3,20.5,8,20.9,7.5z"
			/>
		<path class="st0" d="M36,7.5c0.3,0.5,0.6,0.8,0.6,1c0,0.3-0.4,0.5-0.7,0.7c-0.3-0.3-0.6-0.5-0.7-0.8C35.1,8.3,35.6,8,36,7.5z"/>
		<path class="st0" d="M50.8,9.6c-0.3-0.5-0.7-0.8-0.7-1c0.1-0.3,0.5-0.5,0.8-0.7c0.2,0.3,0.6,0.5,0.6,0.8
			C51.5,8.9,51.2,9.1,50.8,9.6z"/>
		<path class="st0" d="M66,9.6c-0.4-0.4-0.8-0.7-0.8-0.9c0.1-0.3,0.4-0.6,0.7-0.8c0.2,0.2,0.6,0.4,0.7,0.7S66.3,9.1,66,9.6z"/>
		<path class="st0" d="M80.9,9.6c-0.3-0.5-0.8-0.8-0.7-1c0.1-0.3,0.5-0.5,0.8-0.8c0.2,0.3,0.6,0.5,0.6,0.8S81.2,9.1,80.9,9.6z"/>
		<path class="st0" d="M96.9,8.6c-0.5,0.3-0.7,0.7-1,0.7c-0.3,0-0.5-0.4-0.8-0.6c0.3-0.3,0.5-0.7,0.8-0.7
			C96.1,7.8,96.4,8.2,96.9,8.6z"/>
		<path class="st0" d="M14.4,16.1c-0.5,0.3-0.8,0.6-1,0.6c-0.3,0-0.5-0.4-0.7-0.7c0.3-0.2,0.5-0.6,0.8-0.7
			C13.7,15.3,13.9,15.8,14.4,16.1z"/>
		<path class="st0" d="M28.4,15c0.3,0.5,0.7,0.8,0.7,1c0,0.3-0.4,0.5-0.6,0.8c-0.3-0.3-0.7-0.5-0.8-0.8C27.6,15.8,28,15.5,28.4,15z"
			/>
		<path class="st0" d="M44.4,16.1c-0.5,0.3-0.8,0.7-1,0.6c-0.3,0-0.5-0.4-0.8-0.6c0.3-0.3,0.5-0.6,0.8-0.7
			C43.6,15.3,43.9,15.7,44.4,16.1z"/>
		<path class="st0" d="M58.4,17.1c-0.4-0.4-0.8-0.8-0.8-1c0.1-0.3,0.5-0.5,0.7-0.8c0.2,0.2,0.6,0.5,0.7,0.7S58.7,16.6,58.4,17.1z"/>
		<path class="st0" d="M74.4,16.1c-0.5,0.3-0.8,0.6-1,0.6c-0.3,0-0.5-0.4-0.7-0.7c0.3-0.2,0.5-0.6,0.8-0.7
			C73.7,15.3,74,15.8,74.4,16.1z"/>
		<path class="st0" d="M89.4,16.1c-0.5,0.3-0.8,0.7-1,0.6c-0.3,0-0.5-0.4-0.7-0.7c0.3-0.3,0.5-0.6,0.8-0.7
			C88.7,15.3,89,15.7,89.4,16.1z"/>
		<path class="st0" d="M104.4,16c-0.4,0.4-0.7,0.8-0.9,0.8c-0.3-0.1-0.6-0.4-0.9-0.6c0.3-0.3,0.5-0.6,0.8-0.7
			C103.6,15.3,103.9,15.7,104.4,16z"/>
		<path class="st0" d="M6.9,23.6c-0.5,0.3-0.8,0.6-1,0.6c-0.3,0-0.5-0.4-0.7-0.7c0.3-0.2,0.5-0.6,0.8-0.7
			C6.2,22.8,6.4,23.3,6.9,23.6z"/>
		<path class="st0" d="M19.8,23.5c0.5-0.3,0.8-0.7,1-0.7c0.3,0.1,0.5,0.5,0.8,0.8c-0.3,0.2-0.5,0.6-0.8,0.6S20.3,23.9,19.8,23.5z"/>
		<path class="st0" d="M35.9,24.6c-0.4-0.5-0.8-0.8-0.7-1c0.1-0.3,0.5-0.5,0.7-0.8c0.2,0.2,0.6,0.5,0.6,0.7S36.2,24.1,35.9,24.6z"/>
		<path class="st0" d="M50.9,24.6c-0.4-0.5-0.8-0.8-0.7-1c0.1-0.3,0.5-0.5,0.7-0.8c0.2,0.2,0.6,0.5,0.6,0.7S51.2,24.1,50.9,24.6z"/>
		<path class="st0" d="M65.9,24.6c-0.4-0.5-0.8-0.8-0.7-1c0.1-0.3,0.5-0.5,0.7-0.8c0.2,0.2,0.6,0.5,0.6,0.7S66.2,24.1,65.9,24.6z"/>
		<path class="st0" d="M80.9,24.6c-0.4-0.5-0.8-0.8-0.7-1c0.1-0.3,0.5-0.5,0.7-0.8c0.2,0.2,0.6,0.5,0.6,0.7S81.2,24.1,80.9,24.6z"/>
		<path class="st0" d="M95.9,24.6c-0.4-0.5-0.8-0.8-0.7-1c0.1-0.3,0.5-0.5,0.7-0.8c0.2,0.2,0.6,0.5,0.6,0.7S96.2,24.1,95.9,24.6z"/>
		<path class="st0" d="M13.4,32.1c-0.4-0.5-0.8-0.8-0.7-1c0.1-0.3,0.5-0.5,0.7-0.8c0.2,0.2,0.6,0.5,0.6,0.7S13.7,31.6,13.4,32.1z"/>
		<path class="st0" d="M28.4,32.1c-0.4-0.5-0.8-0.8-0.7-1c0.1-0.3,0.5-0.5,0.7-0.8c0.2,0.2,0.6,0.5,0.6,0.7
			C29.1,31.3,28.7,31.6,28.4,32.1z"/>
		<path class="st0" d="M44.4,31c-0.4,0.4-0.7,0.7-1,0.7c-0.3,0-0.5-0.4-0.8-0.6c0.3-0.3,0.5-0.7,0.8-0.8
			C43.6,30.3,43.9,30.7,44.4,31z"/>
		<path class="st0" d="M58.4,32.1c-0.4-0.5-0.8-0.8-0.7-1c0.1-0.3,0.5-0.5,0.7-0.8c0.2,0.2,0.6,0.5,0.6,0.7S58.7,31.6,58.4,32.1z"/>
		<path class="st0" d="M73.4,32.1c-0.4-0.5-0.8-0.8-0.7-1c0.1-0.3,0.5-0.5,0.7-0.8c0.2,0.2,0.6,0.5,0.6,0.7
			C74.1,31.3,73.7,31.6,73.4,32.1z"/>
		<path class="st0" d="M88.4,32.1c-0.4-0.5-0.8-0.8-0.7-1c0.1-0.3,0.5-0.5,0.7-0.8c0.2,0.2,0.6,0.5,0.6,0.7
			C89.1,31.3,88.7,31.6,88.4,32.1z"/>
		<path class="st0" d="M103.4,32.1c-0.4-0.5-0.8-0.8-0.7-1c0.1-0.3,0.5-0.5,0.7-0.8c0.2,0.2,0.6,0.5,0.6,0.7S103.7,31.6,103.4,32.1z
			"/>
		<path class="st0" d="M6.9,38.6c-0.5,0.3-0.8,0.6-1,0.6c-0.3,0-0.5-0.4-0.7-0.7c0.3-0.2,0.5-0.6,0.8-0.7
			C6.2,37.8,6.4,38.3,6.9,38.6z"/>
		<path class="st0" d="M21,39.6c-0.4-0.4-0.8-0.7-0.8-0.9c0.1-0.3,0.4-0.5,0.7-0.8c0.2,0.2,0.6,0.4,0.7,0.7S21.3,39.1,21,39.6z"/>
		<path class="st0" d="M36,39.6c-0.4-0.4-0.8-0.7-0.8-0.9c0.1-0.3,0.4-0.5,0.7-0.8c0.2,0.2,0.6,0.4,0.7,0.7S36.3,39.1,36,39.6z"/>
		<path class="st0" d="M51.9,38.6c-0.5,0.3-0.8,0.7-1,0.6c-0.3,0-0.5-0.4-0.8-0.6c0.3-0.3,0.5-0.6,0.8-0.7
			C51.1,37.8,51.4,38.2,51.9,38.6z"/>
		<path class="st0" d="M65.9,39.6c-0.4-0.5-0.8-0.8-0.7-1c0.1-0.3,0.5-0.5,0.7-0.8c0.2,0.2,0.6,0.5,0.6,0.7S66.2,39.1,65.9,39.6z"/>
		<path class="st0" d="M80.9,37.5c0.3,0.5,0.7,0.8,0.7,1c0,0.3-0.4,0.5-0.6,0.8c-0.3-0.3-0.7-0.5-0.8-0.8
			C80.1,38.3,80.5,38,80.9,37.5z"/>
		<path class="st0" d="M96,37.5c0.3,0.5,0.6,0.8,0.6,1c0,0.3-0.4,0.5-0.7,0.7c-0.3-0.3-0.6-0.5-0.7-0.8C95.1,38.3,95.6,38,96,37.5z"
			/>
		<path class="st0" d="M13.4,47.1c-0.4-0.4-0.8-0.8-0.8-1c0.1-0.3,0.5-0.5,0.7-0.8c0.2,0.2,0.6,0.5,0.7,0.7S13.7,46.6,13.4,47.1z"/>
		<path class="st0" d="M28.4,47.1c-0.3-0.5-0.8-0.8-0.7-1c0.1-0.3,0.5-0.5,0.8-0.8c0.2,0.3,0.6,0.5,0.6,0.8S28.7,46.6,28.4,47.1z"/>
		<path class="st0" d="M43.3,47.1c-0.3-0.5-0.7-0.8-0.7-1c0.1-0.3,0.5-0.5,0.8-0.7c0.2,0.3,0.6,0.5,0.6,0.8
			C44,46.4,43.7,46.6,43.3,47.1z"/>
		<path class="st0" d="M59.4,46.1c-0.4,0.3-0.8,0.7-1,0.7c-0.3-0.1-0.5-0.5-0.8-0.8c0.3-0.2,0.5-0.6,0.8-0.6
			C58.7,45.4,58.9,45.7,59.4,46.1z"/>
		<path class="st0" d="M73.3,47.1c-0.3-0.5-0.7-0.8-0.7-1c0.1-0.3,0.5-0.5,0.8-0.7c0.2,0.3,0.6,0.5,0.6,0.8
			C74.1,46.4,73.7,46.6,73.3,47.1z"/>
		<path class="st0" d="M88.4,45c0.3,0.5,0.7,0.8,0.7,1c0,0.3-0.4,0.5-0.6,0.8c-0.3-0.3-0.7-0.5-0.8-0.8C87.6,45.8,88,45.5,88.4,45z"
			/>
		<path class="st0" d="M103.5,45c0.3,0.5,0.6,0.8,0.6,1c0,0.3-0.4,0.5-0.7,0.7c-0.3-0.3-0.6-0.5-0.7-0.8
			C102.6,45.8,103.1,45.5,103.5,45z"/>
		<path class="st0" d="M6.9,53.6c-0.5,0.3-0.7,0.7-1,0.7c-0.3,0-0.5-0.4-0.8-0.6c0.3-0.3,0.5-0.7,0.8-0.7
			C6.1,52.8,6.4,53.2,6.9,53.6z"/>
		<path class="st0" d="M21.9,53.6c-0.5,0.3-0.8,0.7-1,0.6c-0.3,0-0.5-0.4-0.8-0.7c0.3-0.3,0.5-0.6,0.8-0.7
			C21.1,52.8,21.4,53.3,21.9,53.6z"/>
		<path class="st0" d="M36,54.6c-0.4-0.4-0.8-0.7-0.8-0.9c0.1-0.3,0.4-0.6,0.7-0.8c0.2,0.2,0.6,0.4,0.7,0.7S36.3,54.1,36,54.6z"/>
		<path class="st0" d="M50.9,52.5c0.3,0.5,0.7,0.8,0.7,1s-0.4,0.5-0.6,0.8c-0.3-0.3-0.7-0.5-0.8-0.8C50.1,53.3,50.5,53,50.9,52.5z"
			/>
		<path class="st0" d="M66.9,53.5c-0.4,0.4-0.7,0.8-0.9,0.8c-0.3-0.1-0.6-0.4-0.8-0.7c0.2-0.2,0.5-0.6,0.7-0.7
			C66.1,52.8,66.4,53.2,66.9,53.5z"/>
		<path class="st0" d="M80.9,54.6c-0.4-0.5-0.8-0.8-0.7-1c0.1-0.3,0.5-0.5,0.7-0.8c0.2,0.2,0.6,0.5,0.6,0.7S81.2,54.1,80.9,54.6z"/>
		<path class="st0" d="M95.9,54.6c-0.4-0.4-0.8-0.8-0.8-0.9c0.1-0.3,0.5-0.5,0.7-0.8c0.2,0.2,0.6,0.5,0.7,0.7
			C96.6,53.8,96.3,54.1,95.9,54.6z"/>
		<path class="st0" d="M14.3,61c-0.4,0.4-0.7,0.8-0.9,0.8c-0.3-0.1-0.6-0.4-0.9-0.6c0.3-0.3,0.5-0.7,0.8-0.7
			C13.6,60.3,13.9,60.7,14.3,61z"/>
		<path class="st0" d="M28.4,62.1c-0.4-0.5-0.8-0.8-0.7-1c0.1-0.3,0.5-0.5,0.7-0.8c0.2,0.2,0.6,0.5,0.6,0.7
			C29.1,61.3,28.7,61.6,28.4,62.1z"/>
		<path class="st0" d="M43.4,62.1c-0.4-0.5-0.8-0.8-0.7-1c0.1-0.3,0.5-0.5,0.7-0.8c0.2,0.2,0.6,0.5,0.6,0.7S43.7,61.6,43.4,62.1z"/>
		<path class="st0" d="M58.4,62.1c-0.4-0.5-0.8-0.8-0.7-1c0.1-0.3,0.5-0.5,0.7-0.8c0.2,0.2,0.6,0.5,0.6,0.7S58.7,61.6,58.4,62.1z"/>
		<path class="st0" d="M73.4,62.1c-0.4-0.5-0.8-0.8-0.7-1c0.1-0.3,0.5-0.5,0.7-0.8c0.2,0.2,0.6,0.5,0.6,0.7
			C74.1,61.3,73.7,61.6,73.4,62.1z"/>
		<path class="st0" d="M87.4,61c0.4-0.3,0.8-0.7,1-0.7c0.3,0.1,0.5,0.5,0.8,0.8c-0.3,0.2-0.5,0.6-0.8,0.6
			C88.1,61.7,87.8,61.4,87.4,61z"/>
		<path class="st0" d="M104.4,61c-0.4,0.4-0.7,0.7-0.9,0.7c-0.3,0-0.5-0.4-0.8-0.6c0.3-0.3,0.5-0.7,0.8-0.8
			C103.6,60.3,103.9,60.7,104.4,61z"/>
		<path class="st0" d="M6.9,68.6c-0.5,0.3-0.8,0.6-1,0.6c-0.3,0-0.5-0.4-0.7-0.7c0.3-0.2,0.5-0.6,0.8-0.7
			C6.2,67.8,6.4,68.3,6.9,68.6z"/>
		<path class="st0" d="M20.9,69.6c-0.3-0.5-0.8-0.8-0.7-1c0.1-0.3,0.5-0.5,0.8-0.8c0.2,0.3,0.6,0.5,0.6,0.8S21.2,69.1,20.9,69.6z"/>
		<path class="st0" d="M36.9,68.5c-0.4,0.3-0.7,0.7-1,0.7c-0.3,0-0.5-0.4-0.8-0.6c0.3-0.3,0.5-0.7,0.8-0.8
			C36.1,67.8,36.4,68.2,36.9,68.5z"/>
		<path class="st0" d="M50.9,67.5c0.3,0.5,0.7,0.8,0.7,1s-0.4,0.5-0.6,0.8c-0.3-0.3-0.7-0.5-0.8-0.8C50.1,68.3,50.5,68,50.9,67.5z"
			/>
		<path class="st0" d="M64.9,68.5c0.5-0.3,0.8-0.7,1-0.7c0.3,0.1,0.5,0.5,0.8,0.8c-0.3,0.2-0.5,0.6-0.8,0.6S65.3,68.9,64.9,68.5z"/>
		<path class="st0" d="M81.9,68.6c-0.5,0.3-0.7,0.7-1,0.7c-0.3,0-0.5-0.4-0.8-0.6c0.3-0.3,0.5-0.7,0.8-0.7
			C81.1,67.8,81.4,68.2,81.9,68.6z"/>
		<path class="st0" d="M96.9,68.5c-0.4,0.4-0.7,0.7-0.9,0.7c-0.3,0-0.5-0.4-0.8-0.6c0.3-0.3,0.5-0.7,0.8-0.8
			C96.1,67.8,96.4,68.2,96.9,68.5z"/>
		<path class="st0" d="M13.4,75c0.3,0.5,0.7,0.8,0.7,1c0,0.3-0.4,0.5-0.6,0.8c-0.3-0.3-0.7-0.5-0.8-0.8C12.6,75.8,13,75.5,13.4,75z"
			/>
		<path class="st0" d="M29.4,76.1c-0.5,0.3-0.8,0.6-1,0.6c-0.3,0-0.5-0.4-0.7-0.7c0.3-0.2,0.5-0.6,0.8-0.7
			C28.7,75.3,28.9,75.8,29.4,76.1z"/>
		<path class="st0" d="M43.4,77.1c-0.3-0.5-0.8-0.8-0.7-1c0.1-0.3,0.5-0.5,0.8-0.8c0.2,0.3,0.6,0.5,0.6,0.8S43.7,76.6,43.4,77.1z"/>
		<path class="st0" d="M58.4,75c0.3,0.5,0.7,0.8,0.7,1c0,0.3-0.4,0.5-0.6,0.8c-0.3-0.3-0.7-0.5-0.8-0.8C57.6,75.8,58,75.5,58.4,75z"
			/>
		<path class="st0" d="M73.4,75c0.3,0.5,0.7,0.8,0.7,1c0,0.3-0.4,0.5-0.6,0.8c-0.3-0.3-0.7-0.5-0.8-0.8C72.6,75.8,73,75.5,73.4,75z"
			/>
		<path class="st0" d="M88.4,77.1c-0.4-0.5-0.8-0.8-0.7-1c0.1-0.3,0.5-0.5,0.7-0.8c0.2,0.2,0.6,0.5,0.6,0.7
			C89.1,76.3,88.7,76.6,88.4,77.1z"/>
		<path class="st0" d="M103.4,75c0.3,0.5,0.7,0.8,0.7,1c0,0.3-0.4,0.5-0.6,0.8c-0.3-0.3-0.7-0.5-0.8-0.8
			C102.6,75.8,103,75.5,103.4,75z"/>
		<path class="st0" d="M6.9,83.5c-0.4,0.4-0.7,0.7-1,0.7c-0.3,0-0.5-0.4-0.8-0.6c0.3-0.3,0.5-0.7,0.8-0.8
			C6.1,82.8,6.4,83.2,6.9,83.5z"/>
		<path class="st0" d="M21.9,83.6c-0.5,0.3-0.8,0.6-1,0.6c-0.3,0-0.5-0.4-0.7-0.7c0.3-0.2,0.5-0.6,0.8-0.7
			C21.2,82.8,21.4,83.3,21.9,83.6z"/>
		<path class="st0" d="M36.9,83.6c-0.5,0.3-0.8,0.7-1,0.6c-0.3,0-0.5-0.4-0.7-0.7c0.3-0.3,0.5-0.6,0.8-0.7
			C36.1,82.8,36.4,83.3,36.9,83.6z"/>
		<path class="st0" d="M51.9,83.6c-0.5,0.3-0.8,0.7-1,0.6c-0.3,0-0.5-0.4-0.8-0.7c0.3-0.3,0.5-0.6,0.8-0.7
			C51.1,82.8,51.4,83.2,51.9,83.6z"/>
		<path class="st0" d="M65.9,84.6c-0.4-0.5-0.8-0.8-0.7-1c0.1-0.3,0.5-0.5,0.7-0.8c0.2,0.2,0.6,0.5,0.6,0.7S66.2,84.1,65.9,84.6z"/>
		<path class="st0" d="M80.9,84.6c-0.4-0.5-0.8-0.8-0.7-1c0.1-0.3,0.5-0.5,0.7-0.8c0.2,0.2,0.6,0.5,0.6,0.7S81.2,84.1,80.9,84.6z"/>
		<path class="st0" d="M95.9,84.6c-0.4-0.5-0.8-0.8-0.7-1c0.1-0.3,0.5-0.5,0.7-0.8c0.2,0.2,0.6,0.5,0.6,0.7S96.2,84.1,95.9,84.6z"/>
		<path class="st0" d="M13.4,90c0.3,0.5,0.7,0.8,0.7,1c0,0.3-0.4,0.5-0.6,0.8c-0.3-0.3-0.7-0.5-0.8-0.8C12.6,90.8,13,90.5,13.4,90z"
			/>
		<path class="st0" d="M29.4,91.1c-0.5,0.3-0.8,0.7-1,0.6c-0.3-0.1-0.5-0.5-0.8-0.8c0.3-0.2,0.5-0.6,0.8-0.6
			C28.7,90.4,28.9,90.8,29.4,91.1z"/>
		<path class="st0" d="M44.4,91.1c-0.5,0.3-0.8,0.7-1,0.6c-0.3,0-0.5-0.4-0.8-0.7c0.3-0.3,0.5-0.6,0.8-0.7
			C43.6,90.3,43.9,90.8,44.4,91.1z"/>
		<path class="st0" d="M58.4,90c0.3,0.5,0.7,0.8,0.7,1c0,0.3-0.4,0.5-0.6,0.8c-0.3-0.3-0.7-0.5-0.8-0.8C57.6,90.8,58,90.5,58.4,90z"
			/>
		<path class="st0" d="M73.5,92.1c-0.4-0.4-0.8-0.7-0.8-0.9c0.1-0.3,0.4-0.5,0.7-0.8c0.2,0.2,0.6,0.4,0.7,0.7S73.8,91.6,73.5,92.1z"
			/>
		<path class="st0" d="M88.5,92.1c-0.4-0.4-0.8-0.7-0.8-0.9c0.1-0.3,0.4-0.5,0.7-0.8c0.2,0.2,0.6,0.4,0.7,0.7S88.8,91.6,88.5,92.1z"
			/>
		<path class="st0" d="M103.4,90c0.3,0.5,0.7,0.8,0.7,1c0,0.3-0.4,0.5-0.6,0.8c-0.3-0.3-0.7-0.5-0.8-0.8
			C102.6,90.8,103,90.5,103.4,90z"/>
		<path class="st0" d="M6.9,98.6c-0.5,0.3-0.8,0.6-1,0.6c-0.3,0-0.5-0.4-0.7-0.7c0.3-0.2,0.5-0.6,0.8-0.7
			C6.2,97.8,6.4,98.3,6.9,98.6z"/>
		<path class="st0" d="M21,97.5c0.3,0.5,0.6,0.8,0.6,1c0,0.3-0.4,0.5-0.7,0.7c-0.3-0.3-0.6-0.5-0.7-0.8C20.1,98.3,20.6,98,21,97.5z"
			/>
		<path class="st0" d="M36.9,98.6c-0.5,0.3-0.8,0.7-1,0.6c-0.3,0-0.5-0.4-0.8-0.6c0.3-0.3,0.5-0.6,0.8-0.7
			C36.1,97.8,36.4,98.3,36.9,98.6z"/>
		<path class="st0" d="M50.9,97.5c0.3,0.5,0.7,0.8,0.7,1c0,0.3-0.4,0.5-0.6,0.8c-0.3-0.3-0.7-0.5-0.8-0.8
			C50.1,98.3,50.5,98,50.9,97.5z"/>
		<path class="st0" d="M66.9,98.6c-0.5,0.3-0.8,0.7-1,0.6c-0.3,0-0.5-0.4-0.7-0.7c0.3-0.2,0.5-0.6,0.8-0.7
			C66.2,97.8,66.5,98.3,66.9,98.6z"/>
		<path class="st0" d="M79.9,98.5c0.5-0.3,0.8-0.7,1-0.7c0.3,0.1,0.5,0.5,0.8,0.8c-0.3,0.2-0.5,0.6-0.8,0.6S80.3,98.9,79.9,98.5z"/>
		<path class="st0" d="M96.9,98.6c-0.5,0.3-0.8,0.7-1,0.6c-0.3,0-0.5-0.4-0.8-0.7c0.3-0.3,0.5-0.6,0.8-0.7
			C96.1,97.8,96.5,98.3,96.9,98.6z"/>
		<path class="st0" d="M14.4,106.1c-0.5,0.3-0.8,0.7-1,0.6c-0.3,0-0.5-0.4-0.7-0.7c0.3-0.2,0.5-0.6,0.8-0.7
			C13.6,105.3,13.9,105.8,14.4,106.1z"/>
		<path class="st0" d="M29.4,106.1c-0.5,0.3-0.8,0.7-1,0.6c-0.3-0.1-0.5-0.5-0.8-0.8c0.3-0.2,0.5-0.6,0.8-0.6
			C28.7,105.4,28.9,105.8,29.4,106.1z"/>
		<path class="st0" d="M43.4,107.1c-0.4-0.5-0.8-0.8-0.7-1c0.1-0.3,0.5-0.5,0.7-0.8c0.2,0.2,0.6,0.5,0.6,0.7S43.7,106.6,43.4,107.1z
			"/>
		<path class="st0" d="M59.4,106.1c-0.5,0.3-0.8,0.7-1,0.6c-0.3-0.1-0.5-0.5-0.8-0.8c0.3-0.2,0.5-0.6,0.8-0.6
			C58.7,105.4,58.9,105.8,59.4,106.1z"/>
		<path class="st0" d="M73.4,107.1c-0.3-0.5-0.8-0.8-0.7-1c0.1-0.3,0.5-0.5,0.8-0.8c0.2,0.3,0.6,0.5,0.6,0.8S73.7,106.6,73.4,107.1z
			"/>
		<path class="st0" d="M89.4,106.1c-0.5,0.3-0.8,0.7-1,0.6c-0.3,0-0.5-0.4-0.7-0.7c0.3-0.3,0.5-0.6,0.8-0.7
			C88.7,105.3,89,105.8,89.4,106.1z"/>
		<path class="st0" d="M104.4,106c-0.4,0.4-0.7,0.7-1,0.7c-0.3,0-0.5-0.4-0.8-0.6c0.3-0.3,0.5-0.7,0.8-0.8
			C103.6,105.3,103.9,105.7,104.4,106z"/>
		<path class="st0" d="M6.9,113.7c-0.5,0.3-0.8,0.6-1,0.6c-0.3,0-0.5-0.4-0.7-0.7c0.3-0.2,0.5-0.6,0.8-0.7
			C6.2,112.8,6.4,113.3,6.9,113.7z"/>
		<path class="st0" d="M21.9,113.6c-0.5,0.3-0.8,0.7-1,0.6c-0.3,0-0.5-0.4-0.8-0.6c0.3-0.3,0.5-0.6,0.8-0.7
			C21.1,112.8,21.4,113.3,21.9,113.6z"/>
		<path class="st0" d="M36.9,113.5c-0.4,0.3-0.7,0.7-1,0.7c-0.3,0-0.5-0.4-0.8-0.6c0.3-0.3,0.5-0.7,0.8-0.8
			C36.1,112.8,36.4,113.2,36.9,113.5z"/>
		<path class="st0" d="M51.9,113.6c-0.5,0.3-0.8,0.7-1,0.6c-0.3,0-0.5-0.4-0.7-0.7c0.3-0.3,0.5-0.6,0.8-0.7
			C51.1,112.8,51.4,113.3,51.9,113.6z"/>
		<path class="st0" d="M66.9,113.5c-0.4,0.4-0.7,0.8-0.9,0.8c-0.3-0.1-0.6-0.4-0.8-0.7c0.2-0.2,0.5-0.6,0.7-0.7
			C66.1,112.8,66.4,113.2,66.9,113.5z"/>
		<path class="st0" d="M80.9,114.6c-0.3-0.5-0.8-0.8-0.7-1c0.1-0.3,0.5-0.5,0.8-0.8c0.2,0.3,0.6,0.5,0.6,0.8S81.2,114.1,80.9,114.6z
			"/>
		<path class="st0" d="M96.9,113.5c-0.4,0.4-0.7,0.7-0.9,0.7c-0.3,0-0.5-0.4-0.8-0.6c0.3-0.3,0.5-0.7,0.8-0.8
			C96.1,112.8,96.4,113.2,96.9,113.5z"/>
	</g>
	<g transform="translate(1542.482 184.24)">
		<path class="st0" d="M-1.7,2.1c-0.3-0.5-0.7-0.8-0.6-1c0.1-0.3,0.5-0.5,0.8-0.7C-1.3,0.6-1,0.8-1,1.1C-1,1.4-1.3,1.6-1.7,2.1z"/>
		<path class="st0" d="M13.4,2.1c-0.4-0.5-0.8-0.8-0.7-1c0.1-0.3,0.5-0.5,0.7-0.8C13.6,0.6,14,0.8,14,1.1S13.7,1.6,13.4,2.1z"/>
		<path class="st0" d="M28.4,2.1c-0.4-0.5-0.8-0.8-0.7-1c0.1-0.3,0.5-0.5,0.7-0.8C28.6,0.6,29,0.8,29,1.1
			C29.1,1.3,28.7,1.6,28.4,2.1z"/>
		<path class="st0" d="M43.4,2.1c-0.4-0.5-0.8-0.8-0.7-1c0.1-0.3,0.5-0.5,0.7-0.8C43.6,0.6,44,0.8,44,1.1S43.7,1.6,43.4,2.1z"/>
		<path class="st0" d="M58.4,2.1c-0.4-0.5-0.8-0.8-0.7-1c0.1-0.3,0.5-0.5,0.7-0.8C58.6,0.6,59,0.8,59,1.1S58.7,1.6,58.4,2.1z"/>
		<path class="st0" d="M73.4,2.1c-0.4-0.5-0.8-0.8-0.7-1c0.1-0.3,0.5-0.5,0.7-0.8C73.6,0.6,74,0.8,74,1.1
			C74.1,1.3,73.7,1.6,73.4,2.1z"/>
		<path class="st0" d="M88.4,0c0.3,0.5,0.7,0.8,0.7,1c0,0.3-0.4,0.5-0.6,0.8c-0.3-0.3-0.7-0.5-0.8-0.8C87.6,0.8,88,0.5,88.4,0z"/>
		<path class="st0" d="M104.4,1.1c-0.5,0.3-0.8,0.7-1,0.6c-0.3,0-0.5-0.4-0.8-0.6c0.3-0.3,0.5-0.6,0.8-0.7
			C103.6,0.3,103.9,0.7,104.4,1.1z"/>
		<path class="st0" d="M6.9,8.5c-0.4,0.3-0.7,0.7-1,0.7c-0.3,0-0.5-0.4-0.8-0.6C5.4,8.4,5.6,8,5.9,7.9C6.1,7.8,6.4,8.2,6.9,8.5z"/>
		<path class="st0" d="M20.9,7.5c0.3,0.5,0.7,0.8,0.7,1c0,0.3-0.4,0.5-0.6,0.8c-0.3-0.3-0.7-0.5-0.8-0.8C20.1,8.3,20.5,8,20.9,7.5z"
			/>
		<path class="st0" d="M36,7.5c0.3,0.5,0.6,0.8,0.6,1c0,0.3-0.4,0.5-0.7,0.7c-0.3-0.3-0.6-0.5-0.7-0.8C35.1,8.3,35.6,8,36,7.5z"/>
		<path class="st0" d="M50.8,9.6c-0.3-0.5-0.7-0.8-0.7-1c0.1-0.3,0.5-0.5,0.8-0.7c0.2,0.3,0.6,0.5,0.6,0.8
			C51.5,8.9,51.2,9.1,50.8,9.6z"/>
		<path class="st0" d="M66,9.6c-0.4-0.4-0.8-0.7-0.8-0.9c0.1-0.3,0.4-0.6,0.7-0.8c0.2,0.2,0.6,0.4,0.7,0.7S66.3,9.1,66,9.6z"/>
		<path class="st0" d="M80.9,9.6c-0.3-0.5-0.8-0.8-0.7-1c0.1-0.3,0.5-0.5,0.8-0.8c0.2,0.3,0.6,0.5,0.6,0.8S81.2,9.1,80.9,9.6z"/>
		<path class="st0" d="M96.9,8.6c-0.5,0.3-0.7,0.7-1,0.7c-0.3,0-0.5-0.4-0.8-0.6c0.3-0.3,0.5-0.6,0.8-0.7
			C96.1,7.8,96.4,8.2,96.9,8.6z"/>
		<path class="st0" d="M-0.6,16.1c-0.5,0.3-0.8,0.7-1,0.6c-0.3,0-0.5-0.4-0.7-0.7c0.3-0.3,0.5-0.6,0.8-0.7
			C-1.4,15.3-1.1,15.7-0.6,16.1z"/>
		<path class="st0" d="M14.4,16.1c-0.5,0.3-0.8,0.6-1,0.6c-0.3,0-0.5-0.4-0.7-0.7c0.3-0.2,0.5-0.6,0.8-0.7
			C13.7,15.3,13.9,15.8,14.4,16.1z"/>
		<path class="st0" d="M28.4,15c0.3,0.5,0.7,0.8,0.7,1c0,0.3-0.4,0.5-0.6,0.8c-0.3-0.3-0.7-0.5-0.8-0.8C27.6,15.8,28,15.5,28.4,15z"
			/>
		<path class="st0" d="M44.4,16.1c-0.5,0.3-0.8,0.7-1,0.6c-0.3,0-0.5-0.4-0.8-0.6c0.3-0.3,0.5-0.6,0.8-0.7
			C43.6,15.3,43.9,15.7,44.4,16.1z"/>
		<path class="st0" d="M58.4,17.1c-0.4-0.4-0.8-0.8-0.8-1c0.1-0.3,0.5-0.5,0.7-0.8c0.2,0.2,0.6,0.5,0.7,0.7S58.7,16.6,58.4,17.1z"/>
		<path class="st0" d="M74.4,16.1c-0.5,0.3-0.8,0.6-1,0.6c-0.3,0-0.5-0.4-0.7-0.7c0.3-0.2,0.5-0.6,0.8-0.7
			C73.7,15.3,74,15.8,74.4,16.1z"/>
		<path class="st0" d="M89.4,16.1c-0.5,0.3-0.8,0.7-1,0.6c-0.3,0-0.5-0.4-0.7-0.7c0.3-0.3,0.5-0.6,0.8-0.7
			C88.7,15.3,89,15.7,89.4,16.1z"/>
		<path class="st0" d="M104.4,16c-0.4,0.4-0.7,0.8-0.9,0.8c-0.3-0.1-0.6-0.4-0.9-0.6c0.3-0.3,0.5-0.6,0.8-0.7
			C103.6,15.3,103.9,15.7,104.4,16z"/>
		<path class="st0" d="M6.9,23.6c-0.5,0.3-0.8,0.6-1,0.6c-0.3,0-0.5-0.4-0.7-0.7c0.3-0.2,0.5-0.6,0.8-0.7
			C6.2,22.8,6.4,23.3,6.9,23.6z"/>
		<path class="st0" d="M19.8,23.5c0.5-0.3,0.8-0.7,1-0.7c0.3,0.1,0.5,0.5,0.8,0.8c-0.3,0.2-0.5,0.6-0.8,0.6S20.3,23.9,19.8,23.5z"/>
		<path class="st0" d="M35.9,24.6c-0.4-0.5-0.8-0.8-0.7-1c0.1-0.3,0.5-0.5,0.7-0.8c0.2,0.2,0.6,0.5,0.6,0.7S36.2,24.1,35.9,24.6z"/>
		<path class="st0" d="M50.9,24.6c-0.4-0.5-0.8-0.8-0.7-1c0.1-0.3,0.5-0.5,0.7-0.8c0.2,0.2,0.6,0.5,0.6,0.7S51.2,24.1,50.9,24.6z"/>
		<path class="st0" d="M65.9,24.6c-0.4-0.5-0.8-0.8-0.7-1c0.1-0.3,0.5-0.5,0.7-0.8c0.2,0.2,0.6,0.5,0.6,0.7S66.2,24.1,65.9,24.6z"/>
		<path class="st0" d="M80.9,24.6c-0.4-0.5-0.8-0.8-0.7-1c0.1-0.3,0.5-0.5,0.7-0.8c0.2,0.2,0.6,0.5,0.6,0.7S81.2,24.1,80.9,24.6z"/>
		<path class="st0" d="M95.9,24.6c-0.4-0.5-0.8-0.8-0.7-1c0.1-0.3,0.5-0.5,0.7-0.8c0.2,0.2,0.6,0.5,0.6,0.7S96.2,24.1,95.9,24.6z"/>
		<path class="st0" d="M-1.6,32.1c-0.4-0.5-0.8-0.8-0.7-1c0.1-0.3,0.5-0.5,0.7-0.8c0.2,0.2,0.6,0.5,0.6,0.7S-1.3,31.6-1.6,32.1z"/>
		<path class="st0" d="M13.4,32.1c-0.4-0.5-0.8-0.8-0.7-1c0.1-0.3,0.5-0.5,0.7-0.8c0.2,0.2,0.6,0.5,0.6,0.7S13.7,31.6,13.4,32.1z"/>
		<path class="st0" d="M28.4,32.1c-0.4-0.5-0.8-0.8-0.7-1c0.1-0.3,0.5-0.5,0.7-0.8c0.2,0.2,0.6,0.5,0.6,0.7
			C29.1,31.3,28.7,31.6,28.4,32.1z"/>
		<path class="st0" d="M44.4,31c-0.4,0.4-0.7,0.7-1,0.7c-0.3,0-0.5-0.4-0.8-0.6c0.3-0.3,0.5-0.7,0.8-0.8
			C43.6,30.3,43.9,30.7,44.4,31z"/>
		<path class="st0" d="M58.4,32.1c-0.4-0.5-0.8-0.8-0.7-1c0.1-0.3,0.5-0.5,0.7-0.8c0.2,0.2,0.6,0.5,0.6,0.7S58.7,31.6,58.4,32.1z"/>
		<path class="st0" d="M73.4,32.1c-0.4-0.5-0.8-0.8-0.7-1c0.1-0.3,0.5-0.5,0.7-0.8c0.2,0.2,0.6,0.5,0.6,0.7
			C74.1,31.3,73.7,31.6,73.4,32.1z"/>
		<path class="st0" d="M88.4,32.1c-0.4-0.5-0.8-0.8-0.7-1c0.1-0.3,0.5-0.5,0.7-0.8c0.2,0.2,0.6,0.5,0.6,0.7
			C89.1,31.3,88.7,31.6,88.4,32.1z"/>
		<path class="st0" d="M103.4,32.1c-0.4-0.5-0.8-0.8-0.7-1c0.1-0.3,0.5-0.5,0.7-0.8c0.2,0.2,0.6,0.5,0.6,0.7S103.7,31.6,103.4,32.1z
			"/>
		<path class="st0" d="M6.9,38.6c-0.5,0.3-0.8,0.6-1,0.6c-0.3,0-0.5-0.4-0.7-0.7c0.3-0.2,0.5-0.6,0.8-0.7
			C6.2,37.8,6.4,38.3,6.9,38.6z"/>
		<path class="st0" d="M21,39.6c-0.4-0.4-0.8-0.7-0.8-0.9c0.1-0.3,0.4-0.5,0.7-0.8c0.2,0.2,0.6,0.4,0.7,0.7S21.3,39.1,21,39.6z"/>
		<path class="st0" d="M36,39.6c-0.4-0.4-0.8-0.7-0.8-0.9c0.1-0.3,0.4-0.5,0.7-0.8c0.2,0.2,0.6,0.4,0.7,0.7S36.3,39.1,36,39.6z"/>
		<path class="st0" d="M51.9,38.6c-0.5,0.3-0.8,0.7-1,0.6c-0.3,0-0.5-0.4-0.8-0.6c0.3-0.3,0.5-0.6,0.8-0.7
			C51.1,37.8,51.4,38.2,51.9,38.6z"/>
		<path class="st0" d="M65.9,39.6c-0.4-0.5-0.8-0.8-0.7-1c0.1-0.3,0.5-0.5,0.7-0.8c0.2,0.2,0.6,0.5,0.6,0.7S66.2,39.1,65.9,39.6z"/>
		<path class="st0" d="M80.9,37.5c0.3,0.5,0.7,0.8,0.7,1c0,0.3-0.4,0.5-0.6,0.8c-0.3-0.3-0.7-0.5-0.8-0.8
			C80.1,38.3,80.5,38,80.9,37.5z"/>
		<path class="st0" d="M96,37.5c0.3,0.5,0.6,0.8,0.6,1c0,0.3-0.4,0.5-0.7,0.7c-0.3-0.3-0.6-0.5-0.7-0.8C95.1,38.3,95.6,38,96,37.5z"
			/>
		<path class="st0" d="M-1.6,45c0.3,0.5,0.7,0.8,0.7,1c0,0.3-0.4,0.5-0.6,0.8c-0.3-0.3-0.7-0.5-0.8-0.8C-2.4,45.8-2,45.5-1.6,45z"/>
		<path class="st0" d="M13.4,47.1c-0.4-0.4-0.8-0.8-0.8-1c0.1-0.3,0.5-0.5,0.7-0.8c0.2,0.2,0.6,0.5,0.7,0.7S13.7,46.6,13.4,47.1z"/>
		<path class="st0" d="M28.4,47.1c-0.3-0.5-0.8-0.8-0.7-1c0.1-0.3,0.5-0.5,0.8-0.8c0.2,0.3,0.6,0.5,0.6,0.8S28.7,46.6,28.4,47.1z"/>
		<path class="st0" d="M43.3,47.1c-0.3-0.5-0.7-0.8-0.7-1c0.1-0.3,0.5-0.5,0.8-0.7c0.2,0.3,0.6,0.5,0.6,0.8
			C44,46.4,43.7,46.6,43.3,47.1z"/>
		<path class="st0" d="M59.4,46.1c-0.4,0.3-0.8,0.7-1,0.7c-0.3-0.1-0.5-0.5-0.8-0.8c0.3-0.2,0.5-0.6,0.8-0.6
			C58.7,45.4,58.9,45.7,59.4,46.1z"/>
		<path class="st0" d="M73.3,47.1c-0.3-0.5-0.7-0.8-0.7-1c0.1-0.3,0.5-0.5,0.8-0.7c0.2,0.3,0.6,0.5,0.6,0.8
			C74.1,46.4,73.7,46.6,73.3,47.1z"/>
		<path class="st0" d="M88.4,45c0.3,0.5,0.7,0.8,0.7,1c0,0.3-0.4,0.5-0.6,0.8c-0.3-0.3-0.7-0.5-0.8-0.8C87.6,45.8,88,45.5,88.4,45z"
			/>
		<path class="st0" d="M103.5,45c0.3,0.5,0.6,0.8,0.6,1c0,0.3-0.4,0.5-0.7,0.7c-0.3-0.3-0.6-0.5-0.7-0.8
			C102.6,45.8,103.1,45.5,103.5,45z"/>
		<path class="st0" d="M6.9,53.6c-0.5,0.3-0.7,0.7-1,0.7c-0.3,0-0.5-0.4-0.8-0.6c0.3-0.3,0.5-0.7,0.8-0.7
			C6.1,52.8,6.4,53.2,6.9,53.6z"/>
		<path class="st0" d="M21.9,53.6c-0.5,0.3-0.8,0.7-1,0.6c-0.3,0-0.5-0.4-0.8-0.7c0.3-0.3,0.5-0.6,0.8-0.7
			C21.1,52.8,21.4,53.3,21.9,53.6z"/>
		<path class="st0" d="M36,54.6c-0.4-0.4-0.8-0.7-0.8-0.9c0.1-0.3,0.4-0.6,0.7-0.8c0.2,0.2,0.6,0.4,0.7,0.7S36.3,54.1,36,54.6z"/>
		<path class="st0" d="M50.9,52.5c0.3,0.5,0.7,0.8,0.7,1s-0.4,0.5-0.6,0.8c-0.3-0.3-0.7-0.5-0.8-0.8C50.1,53.3,50.5,53,50.9,52.5z"
			/>
		<path class="st0" d="M66.9,53.5c-0.4,0.4-0.7,0.8-0.9,0.8c-0.3-0.1-0.6-0.4-0.8-0.7c0.2-0.2,0.5-0.6,0.7-0.7
			C66.1,52.8,66.4,53.2,66.9,53.5z"/>
		<path class="st0" d="M80.9,54.6c-0.4-0.5-0.8-0.8-0.7-1c0.1-0.3,0.5-0.5,0.7-0.8c0.2,0.2,0.6,0.5,0.6,0.7S81.2,54.1,80.9,54.6z"/>
		<path class="st0" d="M95.9,54.6c-0.4-0.4-0.8-0.8-0.8-0.9c0.1-0.3,0.5-0.5,0.7-0.8c0.2,0.2,0.6,0.5,0.7,0.7
			C96.6,53.8,96.3,54.1,95.9,54.6z"/>
		<path class="st0" d="M-1.5,62.1c-0.4-0.4-0.8-0.7-0.8-0.9c0.1-0.3,0.4-0.5,0.7-0.8C-1.4,60.6-1,60.8-1,61
			C-0.9,61.3-1.3,61.6-1.5,62.1z"/>
		<path class="st0" d="M14.3,61c-0.4,0.4-0.7,0.8-0.9,0.8c-0.3-0.1-0.6-0.4-0.9-0.6c0.3-0.3,0.5-0.7,0.8-0.7
			C13.6,60.3,13.9,60.7,14.3,61z"/>
		<path class="st0" d="M28.4,62.1c-0.4-0.5-0.8-0.8-0.7-1c0.1-0.3,0.5-0.5,0.7-0.8c0.2,0.2,0.6,0.5,0.6,0.7
			C29.1,61.3,28.7,61.6,28.4,62.1z"/>
		<path class="st0" d="M43.4,62.1c-0.4-0.5-0.8-0.8-0.7-1c0.1-0.3,0.5-0.5,0.7-0.8c0.2,0.2,0.6,0.5,0.6,0.7S43.7,61.6,43.4,62.1z"/>
		<path class="st0" d="M58.4,62.1c-0.4-0.5-0.8-0.8-0.7-1c0.1-0.3,0.5-0.5,0.7-0.8c0.2,0.2,0.6,0.5,0.6,0.7S58.7,61.6,58.4,62.1z"/>
		<path class="st0" d="M73.4,62.1c-0.4-0.5-0.8-0.8-0.7-1c0.1-0.3,0.5-0.5,0.7-0.8c0.2,0.2,0.6,0.5,0.6,0.7
			C74.1,61.3,73.7,61.6,73.4,62.1z"/>
		<path class="st0" d="M87.4,61c0.4-0.3,0.8-0.7,1-0.7c0.3,0.1,0.5,0.5,0.8,0.8c-0.3,0.2-0.5,0.6-0.8,0.6
			C88.1,61.7,87.8,61.4,87.4,61z"/>
		<path class="st0" d="M104.4,61c-0.4,0.4-0.7,0.7-0.9,0.7c-0.3,0-0.5-0.4-0.8-0.6c0.3-0.3,0.5-0.7,0.8-0.8
			C103.6,60.3,103.9,60.7,104.4,61z"/>
		<path class="st0" d="M6.9,68.6c-0.5,0.3-0.8,0.6-1,0.6c-0.3,0-0.5-0.4-0.7-0.7c0.3-0.2,0.5-0.6,0.8-0.7
			C6.2,67.8,6.4,68.3,6.9,68.6z"/>
		<path class="st0" d="M20.9,69.6c-0.3-0.5-0.8-0.8-0.7-1c0.1-0.3,0.5-0.5,0.8-0.8c0.2,0.3,0.6,0.5,0.6,0.8S21.2,69.1,20.9,69.6z"/>
		<path class="st0" d="M36.9,68.5c-0.4,0.3-0.7,0.7-1,0.7c-0.3,0-0.5-0.4-0.8-0.6c0.3-0.3,0.5-0.7,0.8-0.8
			C36.1,67.8,36.4,68.2,36.9,68.5z"/>
		<path class="st0" d="M50.9,67.5c0.3,0.5,0.7,0.8,0.7,1s-0.4,0.5-0.6,0.8c-0.3-0.3-0.7-0.5-0.8-0.8C50.1,68.3,50.5,68,50.9,67.5z"
			/>
		<path class="st0" d="M64.9,68.5c0.5-0.3,0.8-0.7,1-0.7c0.3,0.1,0.5,0.5,0.8,0.8c-0.3,0.2-0.5,0.6-0.8,0.6S65.3,68.9,64.9,68.5z"/>
		<path class="st0" d="M81.9,68.6c-0.5,0.3-0.7,0.7-1,0.7c-0.3,0-0.5-0.4-0.8-0.6c0.3-0.3,0.5-0.7,0.8-0.7
			C81.1,67.8,81.4,68.2,81.9,68.6z"/>
		<path class="st0" d="M96.9,68.5c-0.4,0.4-0.7,0.7-0.9,0.7c-0.3,0-0.5-0.4-0.8-0.6c0.3-0.3,0.5-0.7,0.8-0.8
			C96.1,67.8,96.4,68.2,96.9,68.5z"/>
		<path class="st0" d="M-0.6,76c-0.4,0.4-0.7,0.8-0.9,0.8c-0.3-0.1-0.6-0.5-0.8-0.7c0.2-0.2,0.5-0.6,0.7-0.7S-1.1,75.7-0.6,76z"/>
		<path class="st0" d="M13.4,75c0.3,0.5,0.7,0.8,0.7,1c0,0.3-0.4,0.5-0.6,0.8c-0.3-0.3-0.7-0.5-0.8-0.8C12.6,75.8,13,75.5,13.4,75z"
			/>
		<path class="st0" d="M29.4,76.1c-0.5,0.3-0.8,0.6-1,0.6c-0.3,0-0.5-0.4-0.7-0.7c0.3-0.2,0.5-0.6,0.8-0.7
			C28.7,75.3,28.9,75.8,29.4,76.1z"/>
		<path class="st0" d="M43.4,77.1c-0.3-0.5-0.8-0.8-0.7-1c0.1-0.3,0.5-0.5,0.8-0.8c0.2,0.3,0.6,0.5,0.6,0.8S43.7,76.6,43.4,77.1z"/>
		<path class="st0" d="M58.4,75c0.3,0.5,0.7,0.8,0.7,1c0,0.3-0.4,0.5-0.6,0.8c-0.3-0.3-0.7-0.5-0.8-0.8C57.6,75.8,58,75.5,58.4,75z"
			/>
		<path class="st0" d="M73.4,75c0.3,0.5,0.7,0.8,0.7,1c0,0.3-0.4,0.5-0.6,0.8c-0.3-0.3-0.7-0.5-0.8-0.8C72.6,75.8,73,75.5,73.4,75z"
			/>
		<path class="st0" d="M88.4,77.1c-0.4-0.5-0.8-0.8-0.7-1c0.1-0.3,0.5-0.5,0.7-0.8c0.2,0.2,0.6,0.5,0.6,0.7
			C89.1,76.3,88.7,76.6,88.4,77.1z"/>
		<path class="st0" d="M103.4,75c0.3,0.5,0.7,0.8,0.7,1c0,0.3-0.4,0.5-0.6,0.8c-0.3-0.3-0.7-0.5-0.8-0.8
			C102.6,75.8,103,75.5,103.4,75z"/>
		<path class="st0" d="M6.9,83.5c-0.4,0.4-0.7,0.7-1,0.7c-0.3,0-0.5-0.4-0.8-0.6c0.3-0.3,0.5-0.7,0.8-0.8
			C6.1,82.8,6.4,83.2,6.9,83.5z"/>
		<path class="st0" d="M21.9,83.6c-0.5,0.3-0.8,0.6-1,0.6c-0.3,0-0.5-0.4-0.7-0.7c0.3-0.2,0.5-0.6,0.8-0.7
			C21.2,82.8,21.4,83.3,21.9,83.6z"/>
		<path class="st0" d="M36.9,83.6c-0.5,0.3-0.8,0.7-1,0.6c-0.3,0-0.5-0.4-0.7-0.7c0.3-0.3,0.5-0.6,0.8-0.7
			C36.1,82.8,36.4,83.3,36.9,83.6z"/>
		<path class="st0" d="M51.9,83.6c-0.5,0.3-0.8,0.7-1,0.6c-0.3,0-0.5-0.4-0.8-0.7c0.3-0.3,0.5-0.6,0.8-0.7
			C51.1,82.8,51.4,83.2,51.9,83.6z"/>
		<path class="st0" d="M65.9,84.6c-0.4-0.5-0.8-0.8-0.7-1c0.1-0.3,0.5-0.5,0.7-0.8c0.2,0.2,0.6,0.5,0.6,0.7S66.2,84.1,65.9,84.6z"/>
		<path class="st0" d="M80.9,84.6c-0.4-0.5-0.8-0.8-0.7-1c0.1-0.3,0.5-0.5,0.7-0.8c0.2,0.2,0.6,0.5,0.6,0.7S81.2,84.1,80.9,84.6z"/>
		<path class="st0" d="M95.9,84.6c-0.4-0.5-0.8-0.8-0.7-1c0.1-0.3,0.5-0.5,0.7-0.8c0.2,0.2,0.6,0.5,0.6,0.7S96.2,84.1,95.9,84.6z"/>
		<path class="st0" d="M-0.6,91c-0.4,0.3-0.8,0.8-1,0.7c-0.3-0.1-0.5-0.5-0.8-0.7c0.3-0.2,0.5-0.6,0.8-0.6
			C-1.4,90.4-1.1,90.7-0.6,91z"/>
		<path class="st0" d="M13.4,90c0.3,0.5,0.7,0.8,0.7,1c0,0.3-0.4,0.5-0.6,0.8c-0.3-0.3-0.7-0.5-0.8-0.8C12.6,90.8,13,90.5,13.4,90z"
			/>
		<path class="st0" d="M29.4,91.1c-0.5,0.3-0.8,0.7-1,0.6c-0.3-0.1-0.5-0.5-0.8-0.8c0.3-0.2,0.5-0.6,0.8-0.6
			C28.7,90.4,28.9,90.8,29.4,91.1z"/>
		<path class="st0" d="M44.4,91.1c-0.5,0.3-0.8,0.7-1,0.6c-0.3,0-0.5-0.4-0.8-0.7c0.3-0.3,0.5-0.6,0.8-0.7
			C43.6,90.3,43.9,90.8,44.4,91.1z"/>
		<path class="st0" d="M58.4,90c0.3,0.5,0.7,0.8,0.7,1c0,0.3-0.4,0.5-0.6,0.8c-0.3-0.3-0.7-0.5-0.8-0.8C57.6,90.8,58,90.5,58.4,90z"
			/>
		<path class="st0" d="M73.5,92.1c-0.4-0.4-0.8-0.7-0.8-0.9c0.1-0.3,0.4-0.5,0.7-0.8c0.2,0.2,0.6,0.4,0.7,0.7S73.8,91.6,73.5,92.1z"
			/>
		<path class="st0" d="M88.5,92.1c-0.4-0.4-0.8-0.7-0.8-0.9c0.1-0.3,0.4-0.5,0.7-0.8c0.2,0.2,0.6,0.4,0.7,0.7S88.8,91.6,88.5,92.1z"
			/>
		<path class="st0" d="M103.4,90c0.3,0.5,0.7,0.8,0.7,1c0,0.3-0.4,0.5-0.6,0.8c-0.3-0.3-0.7-0.5-0.8-0.8
			C102.6,90.8,103,90.5,103.4,90z"/>
		<path class="st0" d="M6.9,98.6c-0.5,0.3-0.8,0.6-1,0.6c-0.3,0-0.5-0.4-0.7-0.7c0.3-0.2,0.5-0.6,0.8-0.7
			C6.2,97.8,6.4,98.3,6.9,98.6z"/>
		<path class="st0" d="M21,97.5c0.3,0.5,0.6,0.8,0.6,1c0,0.3-0.4,0.5-0.7,0.7c-0.3-0.3-0.6-0.5-0.7-0.8C20.1,98.3,20.6,98,21,97.5z"
			/>
		<path class="st0" d="M36.9,98.6c-0.5,0.3-0.8,0.7-1,0.6c-0.3,0-0.5-0.4-0.8-0.6c0.3-0.3,0.5-0.6,0.8-0.7
			C36.1,97.8,36.4,98.3,36.9,98.6z"/>
		<path class="st0" d="M50.9,97.5c0.3,0.5,0.7,0.8,0.7,1c0,0.3-0.4,0.5-0.6,0.8c-0.3-0.3-0.7-0.5-0.8-0.8
			C50.1,98.3,50.5,98,50.9,97.5z"/>
		<path class="st0" d="M66.9,98.6c-0.5,0.3-0.8,0.7-1,0.6c-0.3,0-0.5-0.4-0.7-0.7c0.3-0.2,0.5-0.6,0.8-0.7
			C66.2,97.8,66.5,98.3,66.9,98.6z"/>
		<path class="st0" d="M79.9,98.5c0.5-0.3,0.8-0.7,1-0.7c0.3,0.1,0.5,0.5,0.8,0.8c-0.3,0.2-0.5,0.6-0.8,0.6S80.3,98.9,79.9,98.5z"/>
		<path class="st0" d="M96.9,98.6c-0.5,0.3-0.8,0.7-1,0.6c-0.3,0-0.5-0.4-0.8-0.7c0.3-0.3,0.5-0.6,0.8-0.7
			C96.1,97.8,96.5,98.3,96.9,98.6z"/>
		<path class="st0" d="M-0.6,106.1c-0.5,0.3-0.8,0.7-1,0.6c-0.3,0-0.5-0.4-0.7-0.7c0.3-0.2,0.5-0.6,0.8-0.7
			C-1.4,105.3-1.1,105.8-0.6,106.1z"/>
		<path class="st0" d="M14.4,106.1c-0.5,0.3-0.8,0.7-1,0.6c-0.3,0-0.5-0.4-0.7-0.7c0.3-0.2,0.5-0.6,0.8-0.7
			C13.6,105.3,13.9,105.8,14.4,106.1z"/>
		<path class="st0" d="M29.4,106.1c-0.5,0.3-0.8,0.7-1,0.6c-0.3-0.1-0.5-0.5-0.8-0.8c0.3-0.2,0.5-0.6,0.8-0.6
			C28.7,105.4,28.9,105.8,29.4,106.1z"/>
		<path class="st0" d="M43.4,107.1c-0.4-0.5-0.8-0.8-0.7-1c0.1-0.3,0.5-0.5,0.7-0.8c0.2,0.2,0.6,0.5,0.6,0.7S43.7,106.6,43.4,107.1z
			"/>
		<path class="st0" d="M59.4,106.1c-0.5,0.3-0.8,0.7-1,0.6c-0.3-0.1-0.5-0.5-0.8-0.8c0.3-0.2,0.5-0.6,0.8-0.6
			C58.7,105.4,58.9,105.8,59.4,106.1z"/>
		<path class="st0" d="M73.4,107.1c-0.3-0.5-0.8-0.8-0.7-1c0.1-0.3,0.5-0.5,0.8-0.8c0.2,0.3,0.6,0.5,0.6,0.8S73.7,106.6,73.4,107.1z
			"/>
		<path class="st0" d="M89.4,106.1c-0.5,0.3-0.8,0.7-1,0.6c-0.3,0-0.5-0.4-0.7-0.7c0.3-0.3,0.5-0.6,0.8-0.7
			C88.7,105.3,89,105.8,89.4,106.1z"/>
		<path class="st0" d="M104.4,106c-0.4,0.4-0.7,0.7-1,0.7c-0.3,0-0.5-0.4-0.8-0.6c0.3-0.3,0.5-0.7,0.8-0.8
			C103.6,105.3,103.9,105.7,104.4,106z"/>
		<path class="st0" d="M6.9,113.7c-0.5,0.3-0.8,0.6-1,0.6c-0.3,0-0.5-0.4-0.7-0.7c0.3-0.2,0.5-0.6,0.8-0.7
			C6.2,112.8,6.4,113.3,6.9,113.7z"/>
		<path class="st0" d="M21.9,113.6c-0.5,0.3-0.8,0.7-1,0.6c-0.3,0-0.5-0.4-0.8-0.6c0.3-0.3,0.5-0.6,0.8-0.7
			C21.1,112.8,21.4,113.3,21.9,113.6z"/>
		<path class="st0" d="M36.9,113.5c-0.4,0.3-0.7,0.7-1,0.7c-0.3,0-0.5-0.4-0.8-0.6c0.3-0.3,0.5-0.7,0.8-0.8
			C36.1,112.8,36.4,113.2,36.9,113.5z"/>
		<path class="st0" d="M51.9,113.6c-0.5,0.3-0.8,0.7-1,0.6c-0.3,0-0.5-0.4-0.7-0.7c0.3-0.3,0.5-0.6,0.8-0.7
			C51.1,112.8,51.4,113.3,51.9,113.6z"/>
		<path class="st0" d="M66.9,113.5c-0.4,0.4-0.7,0.8-0.9,0.8c-0.3-0.1-0.6-0.4-0.8-0.7c0.2-0.2,0.5-0.6,0.7-0.7
			C66.1,112.8,66.4,113.2,66.9,113.5z"/>
		<path class="st0" d="M80.9,114.6c-0.3-0.5-0.8-0.8-0.7-1c0.1-0.3,0.5-0.5,0.8-0.8c0.2,0.3,0.6,0.5,0.6,0.8S81.2,114.1,80.9,114.6z
			"/>
		<path class="st0" d="M96.9,113.5c-0.4,0.4-0.7,0.7-0.9,0.7c-0.3,0-0.5-0.4-0.8-0.6c0.3-0.3,0.5-0.7,0.8-0.8
			C96.1,112.8,96.4,113.2,96.9,113.5z"/>
	</g>
	<path class="st1" d="M1619.3,386.4c-0.5,6.4-1,12.8-1.8,19.3c-5.6,48.8-20.2,97.7-55.5,135.5c-4.4,4.7-9.2,9.3-15,12.5
		c-15.3,8.5-37.9,4.1-55,4.1h-158.6c-19.7,0-47.9,5.7-64.1-6c-12.1-8.7-23.2-18.8-33.1-30c-4.5-5.1-8.6-10.4-12.5-15.9
		c-20.1-28.4-31.9-61.4-37.3-96.6c-5.8-37.6-4.5-75.6,11.2-111.2c10.7-24.2,27.7-52.4,54.4-63.9c15.3-6.6,32.9-8.4,49.7-8.6
		c21.6-0.3,43.6-1.4,62.2-12.5c21-12.5,36.4-31.6,57.1-44.7c20.9-13.2,45.3-21.1,70.7-17.5c35.4,5,63.4,30.7,82.6,58.7
		c29.5,42.9,44,93.6,45.7,144.6C1620.2,365,1620,375.8,1619.3,386.4z"/>
	<g transform="translate(1298.371 261.289)">
		<path class="st2" d="M130.4,0L-12.4,125.1v172h285.7v-172L130.4,0z"/>
		<rect x="88.7" y="44" class="st3" width="165.9" height="235.3"/>
		<g transform="translate(107.988 74.566)">
			<rect x="-12.4" y="0" class="st4" width="151.8" height="20.1"/>
			<rect x="-12.4" y="29.5" class="st4" width="151.8" height="20.1"/>
			<rect x="-12.4" y="59" class="st4" width="151.8" height="119.5"/>
		</g>
		<path class="st5" d="M130.4,200.4l-142.8-75.3v172h285.7v-172L130.4,200.4z"/>
		<path class="st2" d="M130.4,203.4L-12.4,297h285.7L130.4,203.4z"/>
	</g>
	<g transform="translate(1544.167 292.66)">
		<path class="st6" d="M50.5,244.6c0,0,5.1-3.7,8.3-4.9c2.1-0.8,4.3-1.3,6.5-1.4l3.3,2.5l1.9-1.8c0,0,3,1.2,2,6
			C72.5,244.6,50.5,244.6,50.5,244.6z"/>
		<path class="st7" d="M64.9,233.5l0.4,4.7l3.3,2.5l1.9-1.8l-0.9-5.3L64.9,233.5z"/>
		<path class="st6" d="M26.2,244.6c3-1.8,6-3.5,9.2-4.9c2.1-0.8,4.3-1.3,6.5-1.4l3.3,2.5l1.9-1.8c0,0,3,1.2,2,6
			C49.1,244.6,26.2,244.6,26.2,244.6z"/>
		<path class="st7" d="M41.5,233.5l0.4,4.7l3.3,2.5l1.9-1.8l-0.9-5.3L41.5,233.5z"/>
		<path class="st8" d="M40.2,96.3c0,0,0.1,55.2-0.6,76.6s0.4,63.1,0.4,63.1h11.8l3.3-79.7l-1-60.8L40.2,96.3z"/>
		<path class="st8" d="M47.1,93.2l2.8,25.7l11.2,116.9h11.7l1.4-62.9c0,0,4.2-58.6,3.9-62.7c-0.4-5.1-1.3-10.2-2.6-15.2L47.1,93.2z"
			/>
		<path class="st9" d="M8.8,15.8c0,0,15.9,20.2,32.7,21.5s27.7-5,38.9,3.7s25.2,53.8,21.8,70.3c-0.3,0.3-6.2,0.6-6.2,0.6
			s-14.6-46-20.5-51.3c0.3-0.3,1.2,41,1.2,41c-10.1,3.4-20.6,4.1-36.3,1.4l-0.6-47.6c0,0-20.2-6.2-31.1-24.6
			C8.2,30.4,8.8,15.8,8.8,15.8z"/>
		<path class="st10" d="M48,12.1c0,0-8.1-3.1-7.2-11.5c0.3-1.9,5,1.6,10,0.6s13.7,0,17.7,2.8s4.9,13.2,3.1,17.4
			c-1.5,3.5-4.5,6.2-8.1,7.5L48,12.1z"/>
		<path class="st7" d="M46.1,9c0,0-7.8,14.9,0.3,25.2c1.9,1.2,8.7-1.9,8.7-1.9v5.6l4,5.9l5-7.2l-0.6-7.8c0,0,4.4-3.1,4.7-7.2
			c0.3-4-4-2.8-4-2.8s-9.3,0.6-9-8.1C55.2,11.1,46.1,9,46.1,9z"/>
		<path class="st7" d="M3.5,11.5c-2-1.9-4.7-3-7.5-3.1c-4.4,0-7.5,3.7-7.5,3.7s3.1,6.8,6.5,7.2c3.4,0.3,6.2-5.3,6.2-5.3
			s-0.6,2.8,1.2,2.8S3.5,11.5,3.5,11.5z"/>
		<path class="st7" d="M96.1,111.9l-0.3,9.3l2.8-3.7c0,0,0.5,8.4,2.8,8.4c2.3,0,0.9-14.6,0.9-14.6L96.1,111.9z"/>
	</g>
	<path class="st11" d="M1268.9,237.9h92.9c4.2,0,7.5,3.4,7.5,7.5v182.8c0,4.2-3.4,7.5-7.5,7.5h-92.9c-4.2,0-7.5-3.4-7.5-7.5V245.4
		C1261.4,241.2,1264.8,237.9,1268.9,237.9z"/>
	<path class="st12" d="M1357,243.9h-25.1l-1.6,5.2h-27l-1.8-5.2h-27.7c-3.5,0-6.3,2.8-6.3,6.3V409c0,3.5,2.8,6.3,6.3,6.3h83.2
		c3.5,0,6.3-2.8,6.3-6.3V250.3C1363.3,246.8,1360.5,243.9,1357,243.9z"/>
	<circle class="st13" cx="1315.4" cy="425.9" r="8.6"/>
	<circle class="st14" cx="1315.4" cy="425.9" r="6.5"/>
	<circle id="phone-outer" class="st15" cx="1315.4" cy="379.1" r="15.5"/>
	<circle class="st16" cx="1315.4" cy="379.1" r="13.3"/>
	<circle id="phone-inner" fill="none" cx="1315.4" cy="379.1" r="1"/>
	<path id="phone" class="st4" d="M1319.1,371.9l-2.1,1.7c-0.6,0.5-0.7,1.3-0.2,1.8c0.1,0.1,0.2,0.2,0.3,0.3c0.7,0.4,1.3,1,1.3,1.7
		c0,1.5-3.1,4.6-4.3,5c-0.6,0.1-1-0.5-1.4-1.2c-0.4-0.7-1.2-1-1.9-0.6c-0.1,0.1-0.3,0.2-0.4,0.3l-2.2,2.2c-0.6,0.6-0.6,1.6,0,2.2
		c0,0,0.1,0.1,0.2,0.1c1.3,1,2.6,2,4.5,1.2c3.1-1.2,9.1-8,10-9.5c0.6-1-0.6-3.3-1.6-4.8c-0.4-0.7-1.3-0.9-2-0.5
		C1319.2,371.8,1319.2,371.8,1319.1,371.9z"/>
	<path class="st17" d="M1479.3,177.6h-101.7V240h17.6l-14.4,46l40.4-46h58.1L1479.3,177.6z"/>
	<rect id="path1" x="1384.7" y="189.6" fill="none" width="88.1" height="9.8"/>
	<rect id="path2" x="1384.7" y="204.4" fill="none" width="88.1" height="9.8"/>
	<rect id="path3" x="1384.7" y="220.3" fill="none" width="48.1" height="9.8"/>
	<g transform="translate(1167.872 300.008)">
		<path class="st10" d="M50.5,32l-1.1,29.5c0,0-9.5-9.1-20.1-2.2s-15,14.2-15,14.2S1.7,67.8,4.6,56.8S18.1,47,21.4,41.2
			s-5.1-12.4,1.5-22.6s17.1-6.2,19-9.1s2.6-9.8,12.4-11.3s24.4,10.6,15,22.2C60,30.2,50.5,32,50.5,32z"/>
		<path class="st8" d="M26.5,114.1c-3.2,7-4.5,14.7-3.8,22.4c1.1,12.8,0.9,43.4-0.5,47S9.3,241.4,9.3,241.4l8,2.6
			c0,0,19-45.6,22.2-57.3s6.6-52.3,6.6-52.3l3.8,2.7c0,0,5.5,40.1,6.6,48.1s3.5,64.5,3.5,64.5h7.7c0,0,7.7-52.2,8.8-64.5
			s-7.7-70.4-7.7-70.4l-13.5-12.4L26.5,114.1z"/>
		<path class="st7" d="M59.7,241.3l-0.2,9.2c0,0,10.2,7.7,11.7,7.7s-3.5-8.4-3.5-8.4l0.8-5.8L59.7,241.3z"/>
		<path class="st6" d="M57.7,262.9c0,0-0.4-10.2,1.6-15.3c-0.5,0.7,10.9,8.2,10.9,8.2s9.8,7.1,7.5,8.2s-17.3-7.7-17.3-7.7l-1.1,6.9
			L57.7,262.9z"/>
		<path class="st7" d="M9.3,241.4L9,250.5c0,0,10.2,7.7,11.7,7.7s-4-9.1-4-9.1l0.7-5.1L9.3,241.4z"/>
		<path class="st6" d="M7.2,262.9c0,0-0.4-10.2,1.6-15.3c-0.5,0.7,10.9,8.2,10.9,8.2s9.8,7.1,7.5,8.2s-17.3-7.7-17.3-7.7l-1.1,6.9
			L7.2,262.9z"/>
		<path class="st18" d="M42.5,43.3c0,0,10.2-2.9,17.5,0.4s15.3,21.2,20.1,26.6s32.5-0.4,32.5-0.4l2.2,12.4c0,0-26.6,3.3-34.6,2.6
			s-12-11.3-12-11.3s-1.5,9.5-6.2,12c0.7-0.7,6.9,29.2,6.9,29.2s-5.5,2.6-9.8,2.2s-6.6-6.6-6.6-6.6s-0.7,6.6-6.6,7.7s-19.3-4-19.3-4
			s3.6-20.8,4.4-28.4s-3.3-17.1-3.3-17.1S7.9,82,8.6,115.9c-0.7-0.4-10.9-0.7-10.9-0.7s-1.1-22.6,6.6-36.1S30.1,45.9,42.5,43.3z"/>
		<path class="st7" d="M110.7,72c0,0,15.3-9.8,19.7-7.7s-8,10.6-8,10.6s2.9,2.2,1.8,5.1s-9.5,0.7-9.5,0.7L110.7,72z"/>
		<path class="st7" d="M49.1,14.5c0,0-5.5,0-5.1,4.4s4.7,4.4,4.7,4.4l-3.3,20.1l7.3,6.9l3.6-6.2l0.4-8.4c0,0,4,4,7.7,4
			c5.8-10.6,5.5-19.7,4.4-27c-1.8,2.2-4.7,6.6-8,3.6S49.5,11.6,49.1,14.5z"/>
		<path class="st7" d="M10.8,126.1c-1.5,1.1-3.3-4-3.3-4s-0.7,15-3.3,16.4s-6.6-12.4-6.6-23.3c-0.4-0.7,10.9,0.7,10.9,0.7
			S14.1,123.6,10.8,126.1z"/>
	</g>
	<path class="st19" d="M1321.2,445.6v54.7h217.7V403"/>
	<g transform="translate(1)">
		<circle class="st15" cx="1314.6" cy="302.2" r="31"/>
		<g transform="translate(1306 289.847)">
			<path class="st20" d="M16.7,14.4c-1.2-1.2-2.6-2.1-4.2-2.7c2.9-2,3.7-6,1.7-9s-6-3.7-9-1.7c-2.9,2-3.7,6-1.7,9
				c0.4,0.7,1,1.2,1.7,1.7c-4.5,1.6-7.5,5.8-7.5,10.6h1.7c-0.1-5.2,4.1-9.5,9.3-9.5c5.2-0.1,9.5,4.1,9.5,9.3c0,0.1,0,0.1,0,0.2h1.7
				C19.9,19.4,18.8,16.5,16.7,14.4z M8.8,11.2c-2.6,0-4.7-2.1-4.7-4.7s2.1-4.7,4.7-4.7c2.6,0,4.7,2.1,4.7,4.7c0,0,0,0,0,0
				C13.5,9.1,11.4,11.2,8.8,11.2L8.8,11.2z"/>
		</g>
	</g>
</g>
</svg>
